<?xml version="1.0" encoding="iso-8859-1"?>
<!-- Generator: Adobe Illustrator 19.0.0, SVG Export Plug-In . SVG Version: 6.00 Build 0)  -->
<svg version="1.1" id="Capa_1" xmlns="http://www.w3.org/2000/svg" xmlns:xlink="http://www.w3.org/1999/xlink" x="0px" y="0px"
	 viewBox="0 0 423.253 423.253" style="enable-background:new 0 0 423.253 423.253;" xml:space="preserve">
<g>
	<circle style="fill:#FFE600;" cx="109.227" cy="112.64" r="88.747"/>
	<path style="fill:#FFE600;" d="M109.227,208.213c-52.7,0-95.573-42.873-95.573-95.573s42.873-95.573,95.573-95.573
		S204.8,59.94,204.8,112.64S161.927,208.213,109.227,208.213z M109.227,30.72c-45.174,0-81.92,36.75-81.92,81.92
		s36.746,81.92,81.92,81.92s81.92-36.75,81.92-81.92S154.4,30.72,109.227,30.72z"/>
</g>
<path style="fill:#FFFFFF;" d="M202.307,317.44h89.731h39.052h3.417c45.244,0,81.92-36.676,81.92-81.92s-36.676-81.92-81.92-81.92
	c-3.2,0-6.344,0.23-9.448,0.587c1.65-6.765,2.621-13.795,2.621-21.067c0-49.014-39.733-88.747-88.747-88.747
	c-45.105,0-82.265,33.678-87.917,77.244c-12.771-5.722-26.889-8.977-41.789-8.977c-56.554,0-102.4,45.846-102.4,102.4
	c0,54.248,42.218,98.526,95.573,102.055v0.345h47.785"/>
<path style="fill:#602F75;" d="M334.507,324.267h-132.2c-3.773,0-6.827-3.057-6.827-6.827s3.053-6.827,6.827-6.827h132.2
	c41.407,0,75.093-33.686,75.093-75.093s-33.686-75.093-75.093-75.093c-2.654,0-5.494,0.177-8.666,0.543
	c-2.186,0.276-4.42-0.59-5.9-2.266c-1.473-1.673-2.039-3.963-1.514-6.13c1.613-6.613,2.427-13.158,2.427-19.453
	c0-45.17-36.746-81.92-81.92-81.92c-40.987,0-75.873,30.65-81.154,71.296c-0.273,2.14-1.546,4.023-3.434,5.077
	c-1.881,1.06-4.14,1.164-6.127,0.273c-12.406-5.56-25.525-8.38-38.992-8.38c-52.7,0-95.573,42.873-95.573,95.573
	c0,50.099,39.18,91.936,89.201,95.244c0.587,0.039,1.154,0.154,1.686,0.329h45.647c3.773,0,6.827,3.057,6.827,6.827
	s-3.053,6.827-6.827,6.827H102.4c-0.934,0-1.819-0.186-2.627-0.524C43.653,318.903,0,271.573,0,215.04
	c0-60.227,49-109.227,109.227-109.227c12.52,0,24.774,2.127,36.533,6.337c9.66-43.09,48.28-74.604,93.174-74.604
	c52.7,0,95.573,42.873,95.573,95.573c0,4.477-0.346,9.047-1.039,13.66c49.273-0.259,89.786,39.456,89.786,88.74
	C423.253,284.457,383.44,324.267,334.507,324.267z"/>
<path style="fill:#00E7FF;" d="M27.307,221.867c-3.773,0-6.827-3.057-6.827-6.827c0-48.524,37.98-87.491,86.46-88.716
	c0.06-0.003,0.119-0.003,0.174-0.003c3.693,0,6.733,2.944,6.827,6.653c0.094,3.77-2.886,6.903-6.653,6.997
	c-41.021,1.039-73.155,34.012-73.155,75.069C34.133,218.81,31.08,221.867,27.307,221.867z"/>
<ellipse style="fill:#EA3457;" cx="150.187" cy="385.707" rx="27.307" ry="13.653"/>
<g>
	<path style="fill:#602F75;" d="M150.187,406.187c-19.459,0-34.133-8.803-34.133-20.48s14.674-20.48,34.133-20.48
		s34.133,8.803,34.133,20.48S169.646,406.187,150.187,406.187z M150.187,378.88c-13.213,0-20.48,5.127-20.48,6.827
		c0,1.7,7.267,6.827,20.48,6.827c13.213,0,20.48-5.127,20.48-6.827C170.667,384.007,163.4,378.88,150.187,378.88z"/>
	<path style="fill:#602F75;" d="M177.493,392.533c-3.773,0-6.827-3.057-6.827-6.827v-102.4c0-3.253,2.301-6.057,5.487-6.694
		l102.4-20.48c2.021-0.403,4.093,0.116,5.666,1.413c1.58,1.297,2.5,3.234,2.5,5.28v102.4c0,3.77-3.053,6.827-6.827,6.827
		s-6.827-3.057-6.827-6.827v-94.073l-88.747,17.749v96.804C184.32,389.477,181.267,392.533,177.493,392.533z"/>
</g>
<ellipse style="fill:#FFE600;" cx="252.587" cy="365.227" rx="27.307" ry="13.653"/>
<path style="fill:#602F75;" d="M252.587,385.707c-19.459,0-34.133-8.803-34.133-20.48s14.674-20.48,34.133-20.48
	s34.133,8.803,34.133,20.48S272.046,385.707,252.587,385.707z M252.587,358.4c-13.213,0-20.48,5.127-20.48,6.827
	c0,1.7,7.267,6.827,20.48,6.827s20.48-5.127,20.48-6.827C273.067,363.527,265.8,358.4,252.587,358.4z"/>
<g>
</g>
<g>
</g>
<g>
</g>
<g>
</g>
<g>
</g>
<g>
</g>
<g>
</g>
<g>
</g>
<g>
</g>
<g>
</g>
<g>
</g>
<g>
</g>
<g>
</g>
<g>
</g>
<g>
</g>
</svg>
