<?xml version="1.0" encoding="iso-8859-1"?>
<!-- Generator: Adobe Illustrator 19.0.0, SVG Export Plug-In . SVG Version: 6.00 Build 0)  -->
<svg version="1.1" id="Capa_1" xmlns="http://www.w3.org/2000/svg" xmlns:xlink="http://www.w3.org/1999/xlink" x="0px" y="0px"
	 viewBox="0 0 423.253 423.253" style="enable-background:new 0 0 423.253 423.253;" xml:space="preserve">
<path style="fill:#26BBEC;" d="M331.092,307.2h3.415c45.244,0,81.92-36.676,81.92-81.92s-36.676-81.92-81.92-81.92
	c-3.2,0-6.344,0.23-9.448,0.587c1.65-6.765,2.621-13.795,2.621-21.067c0-49.014-39.733-88.747-88.747-88.747
	c-45.105,0-82.265,33.678-87.917,77.244c-12.771-5.722-26.889-8.977-41.789-8.977c-56.554,0-102.4,45.846-102.4,102.4
	c0,54.248,42.218,98.526,95.573,102.055v0.345h189.638H331.092z"/>
<path d="M334.507,314.027H102.4c-0.934,0-1.819-0.186-2.627-0.524C43.653,308.663,0,261.333,0,204.8
	C0,144.573,49,95.573,109.227,95.573c12.52,0,24.774,2.127,36.533,6.337c9.66-43.09,48.28-74.604,93.174-74.604
	c52.7,0,95.573,42.873,95.573,95.573c0,4.477-0.346,9.047-1.039,13.66c49.273-0.259,89.786,39.456,89.786,88.74
	C423.253,274.217,383.44,314.027,334.507,314.027z M104.54,300.373h229.967c41.407,0,75.093-33.686,75.093-75.093
	s-33.686-75.093-75.093-75.093c-2.654,0-5.494,0.177-8.666,0.543c-2.186,0.276-4.42-0.59-5.9-2.266
	c-1.473-1.673-2.039-3.963-1.514-6.13c1.613-6.613,2.427-13.158,2.427-19.453c0-45.17-36.746-81.92-81.92-81.92
	c-40.987,0-75.873,30.65-81.154,71.296c-0.273,2.14-1.546,4.023-3.434,5.077c-1.881,1.06-4.14,1.164-6.127,0.273
	c-12.406-5.56-25.525-8.38-38.992-8.38c-52.7,0-95.573,42.873-95.573,95.573c0,50.099,39.18,91.936,89.201,95.244
	C103.439,300.083,104.006,300.196,104.54,300.373z"/>
<path d="M27.307,211.627c-3.773,0-6.827-3.057-6.827-6.827c0-48.524,37.98-87.491,86.46-88.716c0.06-0.003,0.119-0.003,0.174-0.003
	c3.693,0,6.733,2.944,6.827,6.653c0.094,3.77-2.886,6.903-6.653,6.997c-41.021,1.039-73.155,34.012-73.155,75.069
	C34.133,208.57,31.08,211.627,27.307,211.627z"/>
<ellipse style="fill:#ED5481;" cx="150.187" cy="375.467" rx="27.307" ry="13.653"/>
<path d="M150.187,395.947c-19.459,0-34.133-8.803-34.133-20.48s14.674-20.48,34.133-20.48s34.133,8.803,34.133,20.48
	S169.646,395.947,150.187,395.947z M150.187,368.64c-13.213,0-20.48,5.127-20.48,6.827c0,1.7,7.267,6.827,20.48,6.827
	c13.213,0,20.48-5.127,20.48-6.827C170.667,373.767,163.4,368.64,150.187,368.64z"/>
<path d="M177.493,382.293c-3.773,0-6.827-3.057-6.827-6.827v-102.4c0-3.253,2.301-6.057,5.487-6.694l102.4-20.48
	c2.021-0.403,4.093,0.116,5.666,1.413c1.58,1.297,2.5,3.234,2.5,5.28v102.4c0,3.77-3.053,6.827-6.827,6.827
	s-6.827-3.057-6.827-6.827v-94.073l-88.747,17.749v96.804C184.32,379.237,181.267,382.293,177.493,382.293z"/>
<ellipse style="fill:#ED5481;" cx="252.587" cy="354.987" rx="27.307" ry="13.653"/>
<path d="M252.587,375.467c-19.459,0-34.133-8.803-34.133-20.48s14.674-20.48,34.133-20.48s34.133,8.803,34.133,20.48
	S272.046,375.467,252.587,375.467z M252.587,348.16c-13.213,0-20.48,5.127-20.48,6.827c0,1.7,7.267,6.827,20.48,6.827
	s20.48-5.127,20.48-6.827C273.067,353.287,265.8,348.16,252.587,348.16z"/>
<g>
</g>
<g>
</g>
<g>
</g>
<g>
</g>
<g>
</g>
<g>
</g>
<g>
</g>
<g>
</g>
<g>
</g>
<g>
</g>
<g>
</g>
<g>
</g>
<g>
</g>
<g>
</g>
<g>
</g>
</svg>
