<?xml version="1.0" encoding="iso-8859-1"?>
<!-- Generator: Adobe Illustrator 19.0.0, SVG Export Plug-In . SVG Version: 6.00 Build 0)  -->
<svg version="1.1" id="Capa_1" xmlns="http://www.w3.org/2000/svg" xmlns:xlink="http://www.w3.org/1999/xlink" x="0px" y="0px"
	 viewBox="0 0 493.168 493.168" style="enable-background:new 0 0 493.168 493.168;" xml:space="preserve">
<g>
	<path style="fill:#29ABE2;" d="M260.296,189.168h-27.424l-4.952-8.664l-13.336-23.336l-16-16h-55.44
		c-5.35,0.001-10.345,2.676-13.312,7.128l-34.656,52c-4.794,7.182-3.023,16.872,4,21.896l36.44,26.024
		c3.693,2.613,7.991,4.243,12.488,4.736l2.48,32.216h204.664v-32h2.792c5.557,0.001,10.975-1.736,15.496-4.968l29.416-25.104
		c6.507-5.551,7.497-15.239,2.248-21.992l-41.816-53.76c-3.03-3.895-7.689-6.174-12.624-6.176h-56.176l-16,16L260.296,189.168z"/>
	<path style="fill:#29ABE2;" d="M150.584,189.168l21.336,16c6.714,5.038,10.665,12.942,10.664,21.336
		c0,14.726-11.938,26.664-26.664,26.664l0,0h-4.8c-5.557,0.001-10.975-1.736-15.496-4.968l-36.44-26.024
		c-7.023-5.023-8.794-14.714-4-21.896l34.656-52c2.969-4.444,7.96-7.112,13.304-7.112h55.44l16,16l32,56l32-56l16-16h56.176
		c4.938-0.001,9.6,2.278,12.632,6.176l41.808,53.76c5.249,6.753,4.259,16.441-2.248,21.992L373.536,248.2
		c-4.521,3.232-9.939,4.969-15.496,4.968h-4.8c-14.723-0.004-26.656-11.941-26.656-26.664c-0.001-8.394,3.95-16.298,10.664-21.336
		l21.336-16"/>
</g>
<path style="fill:#ED1C24;" d="M22.584,333.168h448v152h-448V333.168z"/>
<path style="fill:#666666;" d="M78.584,285.168h344v48h-344V285.168z"/>
<g>
	<path style="fill:#333333;" d="M94.584,285.168l24-32h88l24,32"/>
	<path style="fill:#333333;" d="M262.584,285.168l24-32h88l24,32"/>
</g>
<g>
	<path style="fill:#4D4D4D;" d="M30.584,309.168h48v24h-48V309.168z"/>
	<path style="fill:#4D4D4D;" d="M118.968,126.768c4.264,6.397,12.8,8.316,19.392,4.36l15.272-9.16
		c6.82-4.091,9.032-12.937,4.94-19.756c-0.119-0.199-0.243-0.395-0.372-0.588c-4.264-6.397-12.8-8.316-19.392-4.36l-15.272,9.16
		c-6.82,4.091-9.032,12.937-4.94,19.756C118.715,126.38,118.839,126.576,118.968,126.768L118.968,126.768z"/>
</g>
<path style="fill:#39B54A;" d="M302.584,75.712V37.168C280.931,6.24,238.306-1.279,207.379,20.374
	c-6.535,4.575-12.219,10.259-16.794,16.794v24.144c0.342-0.05,0.687-0.077,1.032-0.08L302.584,75.712z"/>
<path style="fill:#FBCC34;" d="M246.584,369.528l8.984,27.64h29.056l-23.512,17.08l8.984,27.64l-23.512-17.08l-23.512,17.08
	l8.984-27.64l-23.512-17.08H237.6L246.584,369.528z"/>
<path style="fill:#29ABE2;" d="M246.584,213.168l13.712-24h-27.424L246.584,213.168z"/>
<g>
	<path style="fill:#ECC19C;" d="M135.632,248.2c4.521,3.232,9.939,4.969,15.496,4.968h4.8c14.731-0.009,26.665-11.957,26.656-26.688
		c-0.005-8.384-3.952-16.278-10.656-21.312l-11.68-8.752l-33.024,45.776L135.632,248.2z"/>
	<path style="fill:#ECC19C;" d="M337.248,205.168c-11.779,8.845-14.157,25.565-5.312,37.344
		c5.034,6.704,12.928,10.651,21.312,10.656h4.8c5.557,0.001,10.975-1.736,15.496-4.968l14.816-12.64l-36.392-41.432L337.248,205.168
		z"/>
</g>
<g>
	<path style="fill:#29ABE2;" d="M405.2,201.104l-41.816-53.76c-3.03-3.895-7.689-6.174-12.624-6.176h-56.176l-16,16l-18.288,32
		h98.288l-6.616,4.96l36.384,41.44l14.6-12.464C409.464,217.552,410.455,207.859,405.2,201.104L405.2,201.104z"/>
	<path style="fill:#29ABE2;" d="M198.584,141.168h-55.44c-5.35,0.001-10.345,2.676-13.312,7.128l-34.656,52
		c-4.794,7.182-3.023,16.872,4,21.896l28,20l33.024-45.776l-9.616-7.248h82.288l-18.288-32L198.584,141.168z"/>
</g>
<path style="fill:#DFB28B;" d="M198.584,141.168h96l-16,16l-32,56l-32-56L198.584,141.168z"/>
<path style="fill:#ECC19C;" d="M190.584,105.168c-1.066,32.018,23.985,58.858,56,60c32.015-1.142,57.066-27.982,56-60v-13.32
	l-112-14.608V105.168z"/>
<path d="M14.584,485.168c0,4.418,3.582,8,8,8h448c4.418,0,8-3.582,8-8v-152c0-4.418-3.582-8-8-8h-40v-40c0-4.418-3.582-8-8-8h-20
	l-19.776-26.4l25.376-21.6c9.755-8.33,11.235-22.858,3.36-32.984l-41.808-53.76c-4.541-5.869-11.555-9.29-18.976-9.256h-45.92
	c3.791-8.848,5.745-18.374,5.744-28v-12.28l62.968,8.216c0.342,0.045,0.687,0.066,1.032,0.064c4.418,0.008,8.006-3.568,8.014-7.986
	c0.007-4.033-2.989-7.441-6.99-7.95l-65.024-8.48V37.168c0-1.643-0.505-3.246-1.448-4.592c-24.18-34.547-71.788-42.95-106.334-18.77
	c-7.305,5.113-13.657,11.465-18.77,18.77c-0.943,1.346-1.448,2.949-1.448,4.592v68c-0.001,9.626,1.953,19.152,5.744,28H150.48
	l7.264-4.352c10.739-6.142,14.465-19.827,8.323-30.565s-19.827-14.465-30.565-8.323c-0.275,0.157-0.546,0.32-0.814,0.489
	l-15.264,9.152c-7.826,4.652-12.018,13.611-10.576,22.6l-11.416,7.808c-32.435,22.961-51.46,60.441-50.848,100.176v71.016h-16
	c-4.418,0-8,3.582-8,8v16c-4.418,0-8,3.582-8,8L14.584,485.168z M462.584,477.168h-432v-136h432V477.168z M414.584,325.168h-328v-32
	h328V325.168z M151.128,261.168h51.456l12,16h-104l12-16H151.128z M278.584,277.168l12-16h80l12,16H278.584z M294.584,105.168
	c1.029,27.586-20.42,50.822-48,52c-27.58-1.178-49.029-24.414-48-52V78.28l96,12.488V105.168z M231.864,171.28
	c9.652,2.517,19.788,2.517,29.44,0l-14.72,25.76L231.864,171.28z M246.584,16.008c18.861-0.124,36.666,8.692,48,23.768v34.888
	l-96-12.52v-22.4C209.925,24.68,227.729,15.876,246.584,16.008z M206.68,158.24c0.13,1.018,0.456,2.002,0.96,2.896l30.992,54.232
	c-7.668,4.392-10.324,14.168-5.932,21.836s14.168,10.324,21.836,5.932c7.668-4.392,10.324-14.168,5.932-21.836
	c-1.415-2.47-3.462-4.517-5.932-5.932l30.992-54.2c0.504-0.894,0.83-1.878,0.96-2.896c3.217-2.75,6.166-5.798,8.808-9.104h55.464
	c2.47-0.009,4.803,1.133,6.312,3.088l41.816,53.76c2.627,3.371,2.141,8.211-1.104,10.992l-28.872,24.68
	c-3.168,2.274-6.972,3.492-10.872,3.48h-4.8c-10.308,0.004-18.668-8.348-18.672-18.656c-0.003-5.88,2.766-11.418,7.472-14.944
	l21.328-16c3.535-2.651,4.251-7.665,1.6-11.2c-2.651-3.535-7.665-4.251-11.2-1.6l-21.336,16
	c-8.702,6.569-13.826,16.833-13.848,27.736c0.012,6.625,1.937,13.106,5.544,18.664h-37.544c-2.518,0-4.889,1.186-6.4,3.2l-21.6,28.8
	h-24l-21.6-28.8c-1.511-2.014-3.882-3.2-6.4-3.2H185.04c3.607-5.558,5.532-12.039,5.544-18.664
	c-0.026-10.906-5.156-21.17-13.864-27.736l-21.336-16c-3.535-2.651-8.549-1.935-11.2,1.6c-2.651,3.535-1.935,8.549,1.6,11.2
	l21.328,16c8.249,6.181,9.925,17.879,3.744,26.128c-3.526,4.706-9.064,7.475-14.944,7.472h-4.8c-3.892,0.007-7.687-1.21-10.848-3.48
	l-36.44-26.024c-3.517-2.51-4.406-7.358-2.008-10.952l34.656-52c1.491-2.223,3.995-3.553,6.672-3.544h54.728
	C200.516,152.463,203.465,155.501,206.68,158.24L206.68,158.24z M124.704,117.36c0.374-1.715,1.443-3.199,2.952-4.096l15.264-9.152
	c3.033-1.82,6.968-0.837,8.788,2.196c1.82,3.033,0.837,6.968-2.196,8.788l-15.264,9.16c-2.705,1.598-6.172,0.975-8.152-1.464
	c-0.196-0.756-0.503-1.479-0.912-2.144c-0.112-0.16-0.288-0.248-0.408-0.4C124.528,119.304,124.503,118.316,124.704,117.36
	L124.704,117.36z M62.584,230.152c-0.614-34.461,15.806-67.008,43.888-86.992l10.4-7.112c2.66,2.201,5.796,3.751,9.16,4.528
	c-1.042,1.005-1.99,2.102-2.832,3.28l-34.656,52c-7.227,10.768-4.546,25.334,6.04,32.824l23.312,16.656
	c-2.234,0.163-4.295,1.265-5.672,3.032l-21.64,28.8h-12c-4.418,0-8,3.582-8,8v16h-8V230.152z M38.584,317.168h32v8h-32V317.168z"/>
<path d="M284.624,389.168h-23.248l-7.2-22.112c-1.38-4.197-5.901-6.482-10.098-5.102c-2.415,0.794-4.308,2.687-5.102,5.102
	l-7.184,22.112h-23.248c-4.418-0.001-8.001,3.58-8.002,7.999c0,2.561,1.225,4.968,3.298,6.473l18.808,13.664l-7.2,22.112
	c-1.38,4.197,0.904,8.718,5.101,10.099c2.453,0.807,5.144,0.38,7.227-1.147l18.808-13.672l18.808,13.672
	c3.574,2.598,8.577,1.807,11.175-1.767c1.506-2.072,1.929-4.74,1.137-7.177l-7.2-22.112l18.808-13.664
	c3.579-2.591,4.38-7.593,1.789-11.171C289.597,390.4,287.189,389.169,284.624,389.168L284.624,389.168z M256.416,407.776
	c-2.806,2.036-3.982,5.647-2.912,8.944l1.376,4.224l-3.592-2.608c-2.805-2.039-6.603-2.039-9.408,0l-3.592,2.608l1.376-4.224
	c1.07-3.297-0.106-6.908-2.912-8.944l-3.592-2.608h4.44c3.469,0.003,6.544-2.229,7.616-5.528l1.368-4.224l1.368,4.224
	c1.072,3.299,4.147,5.531,7.616,5.528h4.44L256.416,407.776z"/>
<path d="M310.584,373.168c0,4.418,3.582,8,8,8h112c4.418,0,8-3.582,8-8s-3.582-8-8-8h-112
	C314.166,365.168,310.584,368.75,310.584,373.168z"/>
<path d="M414.584,397.168h-96c-4.418,0-8,3.582-8,8s3.582,8,8,8h96c4.418,0,8-3.582,8-8S419.003,397.168,414.584,397.168z"/>
<path d="M390.584,429.168h-72c-4.418,0-8,3.582-8,8s3.582,8,8,8h72c4.418,0,8-3.582,8-8S395.003,429.168,390.584,429.168z"/>
<path d="M174.584,365.168h-112c-4.418,0-8,3.582-8,8s3.582,8,8,8h112c4.418,0,8-3.582,8-8S179.003,365.168,174.584,365.168z"/>
<path d="M174.584,397.168h-96c-4.418,0-8,3.582-8,8s3.582,8,8,8h96c4.418,0,8-3.582,8-8S179.003,397.168,174.584,397.168z"/>
<path d="M174.584,429.168h-72c-4.418,0-8,3.582-8,8s3.582,8,8,8h72c4.418,0,8-3.582,8-8S179.003,429.168,174.584,429.168z"/>
<g>
</g>
<g>
</g>
<g>
</g>
<g>
</g>
<g>
</g>
<g>
</g>
<g>
</g>
<g>
</g>
<g>
</g>
<g>
</g>
<g>
</g>
<g>
</g>
<g>
</g>
<g>
</g>
<g>
</g>
</svg>
