<?xml version="1.0" encoding="iso-8859-1"?>
<!-- Generator: Adobe Illustrator 19.0.0, SVG Export Plug-In . SVG Version: 6.00 Build 0)  -->
<svg version="1.1" id="Capa_1" xmlns="http://www.w3.org/2000/svg" xmlns:xlink="http://www.w3.org/1999/xlink" x="0px" y="0px"
	 viewBox="0 0 480.056 480.056" style="enable-background:new 0 0 480.056 480.056;" xml:space="preserve">
<g>
	<path style="fill:#666666;" d="M240.037,108.32c-4.418,0-8-3.582-8-8v-34.6c0-4.418,3.582-8,8-8s8,3.582,8,8v34.6
		C248.037,104.738,244.455,108.32,240.037,108.32z"/>
	<path style="fill:#666666;" d="M318.029,136.056c-4.418,0-8-3.582-8-8c0-1.731,0.561-3.415,1.6-4.8l20.8-27.736
		c2.655-3.532,7.67-4.242,11.202-1.587c3.526,2.651,4.241,7.655,1.598,11.187l-20.792,27.736
		C322.924,134.873,320.55,136.058,318.029,136.056L318.029,136.056z"/>
	<path style="fill:#666666;" d="M366.349,203.256c-4.418,0.015-8.012-3.554-8.028-7.972c-0.012-3.577,2.351-6.727,5.788-7.716
		l32.896-9.6c4.242-1.237,8.683,1.198,9.92,5.44c1.237,4.242-1.198,8.683-5.44,9.92l-32.896,9.6
		C367.861,203.142,367.107,203.252,366.349,203.256L366.349,203.256z"/>
	<path style="fill:#666666;" d="M163.645,136.056c-2.518,0-4.889-1.186-6.4-3.2l-21.536-28.712c-2.651-3.535-1.935-8.549,1.6-11.2
		c3.535-2.651,8.549-1.935,11.2,1.6l21.528,28.712c2.651,3.535,1.935,8.549-1.6,11.2c-1.385,1.039-3.069,1.6-4.8,1.6
		L163.645,136.056z"/>
	<path style="fill:#666666;" d="M115.325,203.256c-0.761-0.004-1.518-0.114-2.248-0.328l-34.4-10.024
		c-4.242-1.239-6.675-5.682-5.436-9.924s5.682-6.675,9.924-5.436l34.4,10.024c4.246,1.222,6.698,5.654,5.476,9.9
		C122.052,200.905,118.901,203.268,115.325,203.256L115.325,203.256z"/>
</g>
<path style="fill:#06AAE9;" d="M168.037,288.056c-4.418,0-8-3.582-8-8v-12.92c-0.096-29.319,17.768-55.708,45.024-66.512
	c4.105-1.644,8.764,0.351,10.408,4.456c1.644,4.105-0.351,8.764-4.456,10.408c-21.171,8.384-35.049,28.877-34.976,51.648v12.92
	C176.037,284.474,172.455,288.056,168.037,288.056z"/>
<path style="fill:#4D4D4D;" d="M457.485,476.64l-56-80v-9.168l56-80l13.104,9.168l-52.784,75.416l52.784,75.416L457.485,476.64z"/>
<path style="fill:#333333;" d="M72.037,432.056h336v40h-336V432.056z"/>
<path style="fill:#ED1C24;" d="M152.037,280.056h176v152h-176V280.056z"/>
<path style="fill:#06AAE9;" d="M240.037,96.056c8.837,0,16,7.163,16,16v8l0,0h-32l0,0v-8
	C224.037,103.219,231.2,96.056,240.037,96.056z"/>
<path style="fill:#7AC943;" d="M321.637,123.256c7.069,5.302,8.502,15.331,3.2,22.4l-4.8,6.4l0,0l-25.6-19.2l0,0l4.8-6.4
	C304.539,119.387,314.568,117.954,321.637,123.256z"/>
<path style="fill:#FBCC34;" d="M370.619,193.973c2.474,8.483-2.397,17.366-10.88,19.84l-7.68,2.24l0,0l-8.96-30.72l0,0l7.68-2.24
	C359.262,180.619,368.145,185.49,370.619,193.973z"/>
<path style="fill:#7AC943;" d="M187.237,132.856l-25.6,19.2l0,0l-4.8-6.4c-5.302-7.069-3.869-17.098,3.2-22.4
	c7.069-5.302,17.098-3.869,22.4,3.2L187.237,132.856L187.237,132.856z"/>
<path style="fill:#FBCC34;" d="M138.595,185.339l-8.96,30.72l0,0l-7.68-2.24c-8.483-2.474-13.354-11.357-10.88-19.84
	c2.474-8.483,11.357-13.354,19.84-10.88L138.595,185.339L138.595,185.339z"/>
<path d="M320.037,320.056h-160c-4.418,0-8-3.582-8-8s3.582-8,8-8h160c4.418,0,8,3.582,8,8S324.455,320.056,320.037,320.056z"/>
<g>
	<path style="fill:#999999;" d="M72.037,296.056h80v136h-80V296.056z"/>
	<path style="fill:#999999;" d="M328.037,296.056h80v136h-80V296.056z"/>
</g>
<circle style="fill:#4D4D4D;" cx="112.037" cy="384.056" r="16"/>
<path style="fill:#29485A;" d="M112.037,404.056c-11.046,0-20-8.954-20-20s8.954-20,20-20s20,8.954,20,20
	S123.083,404.056,112.037,404.056z M112.037,372.056c-6.627,0-12,5.373-12,12s5.373,12,12,12c6.627,0,12-5.373,12-12
	S118.664,372.056,112.037,372.056z"/>
<circle style="fill:#333333;" cx="112.037" cy="328.056" r="8"/>
<circle style="fill:#4D4D4D;" cx="368.037" cy="384.056" r="16"/>
<path style="fill:#29485A;" d="M368.037,404.056c-11.046,0-20-8.954-20-20s8.954-20,20-20s20,8.954,20,20
	S379.083,404.056,368.037,404.056z M368.037,372.056c-6.627,0-12,5.373-12,12s5.373,12,12,12s12-5.373,12-12
	S374.664,372.056,368.037,372.056z"/>
<circle style="fill:#333333;" cx="368.037" cy="328.056" r="8"/>
<path style="fill:#4D4D4D;" d="M471.933,215.544h0.104c-4.27-64.11-35.257-123.483-85.408-163.648l-4-3.712l-0.504,0.096
	C280.211-30.105,134.049-11.032,55.664,90.882c-27.701,36.016-44.257,79.35-47.627,124.662c0,0.088,0.04,0.168,0,0.256
	s0,0.168,0,0.256v256c0,4.418,3.582,8,8,8h56c4.418,0,8-3.582,8-8V216.512c5.57-63.684,49.084-117.683,110.128-136.664l0.44,0.08
	l4-1.6c14.78-4.189,30.07-6.3,45.432-6.272c50.088-0.34,97.468,22.702,128.128,62.312l-0.088,0.888l6.224,8.608l0.584,0.128
	c14.255,21.72,22.897,46.638,25.152,72.52v255.544c0,4.418,3.582,8,8,8h56c4.418,0,8-3.582,8-8v-256
	C472.037,215.872,471.949,215.72,471.933,215.544z M416.037,257.432l10.232,14.624l-10.232,14.624V257.432z M423.397,240.056h25.28
	l-12.64,18.048L423.397,240.056z M420.997,224.056l26.824-53.648c4.435,14.992,7.19,30.431,8.216,46.032v7.616H420.997z
	 M416.037,337.432l38.232,54.624l-38.232,54.624V337.432z M417.805,312.056l18.232-26.048l20,28.568v52.104L417.805,312.056z
	 M445.805,272.056l10.232-14.624v29.248L445.805,272.056z M436.877,141.384l-42.8-9.512l25.776-20.616
	C426.334,120.821,432.027,130.897,436.877,141.384L436.877,141.384z M410.349,98.36l-24.456,19.568l4.176-41.784
	C397.333,83.073,404.109,90.496,410.349,98.36L410.349,98.36z M24.037,366.68v-29.248l10.232,14.624L24.037,366.68z M44.037,366.008
	l18.232,26.048l-18.232,26.048l-18.232-26.048L44.037,366.008z M24.037,257.432l10.232,14.624L24.037,286.68V257.432z
	 M25.805,312.056l18.232-26.048l18.232,26.048l-18.232,26.048L25.805,312.056z M31.405,240.056h25.272l-12.64,18.048L31.405,240.056
	z M24.037,224.056V216.4c1.109-16.965,4.263-33.735,9.392-49.944l26.184,57.6H24.037z M24.037,417.432l10.232,14.624L24.037,446.68
	V417.432z M44.037,446.008l12.632,18.048H31.405L44.037,446.008z M53.805,432.056l10.232-14.624v29.248L53.805,432.056z
	 M53.805,352.056l10.232-14.624v29.248L53.805,352.056z M53.805,272.056l10.232-14.624v29.248L53.805,272.056z M66.165,199.8
	l-22.768-50.08l45.544-10.112C77.64,158.066,69.914,178.485,66.165,199.8z M47.621,132.4c4.764-9.133,10.18-17.911,16.208-26.264
	l22.168,17.736L47.621,132.4z M180.325,24.4c14.105-4.008,28.578-6.581,43.2-7.68l-29.6,39.448L180.325,24.4z M178.821,61.504
	l-57.184-10.376c13.618-8.837,28.184-16.12,43.424-21.712L178.821,61.504z M294.669,56.888L265.165,17.56
	c15.052,1.726,29.88,5.032,44.24,9.864L294.669,56.888z M324.445,33.12c12.463,5.254,24.408,11.661,35.68,19.136l-49.776,9.072
	L324.445,33.12z M96.037,70.624v40.8l-22.36-17.896C80.557,85.354,88.031,77.699,96.037,70.624z M112.037,109.888V65.656l48.416,8.8
	C142.39,83.384,126.01,95.372,112.037,109.888z M212.333,58.328l31.632-42.176h0.144l32.8,43.76
	c-21.244-4.545-43.149-5.087-64.592-1.6L212.333,58.328z M321.685,75.52l53.336-9.696l-4.64,46.4
	C356.426,97.229,339.943,84.805,321.685,75.52L321.685,75.52z M436.301,157.656l-22.112,44.224
	c-3.044-18.563-9.097-36.506-17.92-53.12L436.301,157.656z M423.405,464.056l32.632-46.624v46.624H423.405z"/>
<path style="fill:#E6E6E6;" d="M328.037,280.056h-80v-24v-40h80V280.056z"/>
<path style="fill:#B3B3B3;" d="M248.037,256.056h80v24h-80V256.056z"/>
<g>
</g>
<g>
</g>
<g>
</g>
<g>
</g>
<g>
</g>
<g>
</g>
<g>
</g>
<g>
</g>
<g>
</g>
<g>
</g>
<g>
</g>
<g>
</g>
<g>
</g>
<g>
</g>
<g>
</g>
</svg>
