<?xml version="1.0" encoding="iso-8859-1"?>
<!-- Generator: Adobe Illustrator 19.0.0, SVG Export Plug-In . SVG Version: 6.00 Build 0)  -->
<svg version="1.1" id="Capa_1" xmlns="http://www.w3.org/2000/svg" xmlns:xlink="http://www.w3.org/1999/xlink" x="0px" y="0px"
	 viewBox="0 0 436.907 436.907" style="enable-background:new 0 0 436.907 436.907;" xml:space="preserve">
<polyline style="fill:#FFFFFF;" points="430.08,320.853 6.827,320.853 6.827,81.92 430.08,81.92 430.08,276.743 "/>
<path style="fill:#602F75;" d="M430.08,327.68H6.827c-3.773,0-6.827-3.053-6.827-6.827V81.92c0-3.773,3.053-6.827,6.827-6.827
	H430.08c3.773,0,6.827,3.053,6.827,6.827v194.819c0,3.773-3.053,6.827-6.827,6.827s-6.827-3.053-6.827-6.827V88.747h-409.6v225.28
	H430.08c3.773,0,6.827,3.053,6.827,6.827S433.853,327.68,430.08,327.68z"/>
<circle style="fill:#00E7FF;" cx="129.707" cy="197.973" r="88.747"/>
<path style="fill:#602F75;" d="M129.707,293.547c-52.7,0-95.573-42.873-95.573-95.573S77.007,102.4,129.707,102.4
	s95.573,42.873,95.573,95.573S182.407,293.547,129.707,293.547z M129.707,116.053c-45.174,0-81.92,36.746-81.92,81.92
	s36.746,81.92,81.92,81.92s81.92-36.746,81.92-81.92S174.88,116.053,129.707,116.053z"/>
<g>
	<path style="fill:#FFFFFF;" d="M68.267,204.8c-3.773,0-6.827-3.053-6.827-6.827c0-37.641,30.626-68.267,68.267-68.267
		c3.773,0,6.827,3.053,6.827,6.827s-3.053,6.827-6.827,6.827c-30.114,0-54.613,24.499-54.613,54.613
		C75.093,201.747,72.04,204.8,68.267,204.8z"/>
	<circle style="fill:#FFFFFF;" cx="129.707" cy="197.973" r="20.48"/>
</g>
<path style="fill:#602F75;" d="M129.707,225.28c-15.06,0-27.307-12.247-27.307-27.307c0-15.06,12.247-27.307,27.307-27.307
	c15.06,0,27.307,12.247,27.307,27.307C157.013,213.033,144.766,225.28,129.707,225.28z M129.707,184.32
	c-7.526,0-13.653,6.127-13.653,13.653c0,7.526,6.127,13.653,13.653,13.653c7.526,0,13.653-6.127,13.653-13.653
	C143.36,190.447,137.233,184.32,129.707,184.32z"/>
<rect x="314.027" y="116.053" style="fill:#EA3457;" width="54.613" height="27.307"/>
<g>
	<path style="fill:#602F75;" d="M368.64,150.187h-54.613c-3.773,0-6.827-3.053-6.827-6.827v-27.307c0-3.773,3.053-6.827,6.827-6.827
		h54.613c3.773,0,6.827,3.053,6.827,6.827v27.307C375.467,147.133,372.413,150.187,368.64,150.187z M320.853,136.533h40.96V122.88
		h-40.96V136.533z"/>
	<path style="fill:#602F75;" d="M307.207,300.373c-2.007,0-3.987-0.874-5.34-2.56c-2.353-2.947-1.874-7.24,1.067-9.6l31.573-25.254
		v-119.6c0-3.773,3.053-6.827,6.827-6.827s6.827,3.053,6.827,6.827v122.88c0,2.074-0.94,4.033-2.56,5.333l-34.133,27.307
		C310.207,299.887,308.7,300.373,307.207,300.373z"/>
</g>
<rect x="6.827" y="320.853" style="fill:#EAEAEA;" width="423.253" height="34.133"/>
<path style="fill:#602F75;" d="M430.08,361.813H6.827c-3.773,0-6.827-3.053-6.827-6.827v-34.133c0-3.773,3.053-6.827,6.827-6.827
	H430.08c3.773,0,6.827,3.053,6.827,6.827v34.133C436.907,358.76,433.853,361.813,430.08,361.813z M13.653,348.16h409.6v-20.48
	h-409.6V348.16z"/>
<g>
</g>
<g>
</g>
<g>
</g>
<g>
</g>
<g>
</g>
<g>
</g>
<g>
</g>
<g>
</g>
<g>
</g>
<g>
</g>
<g>
</g>
<g>
</g>
<g>
</g>
<g>
</g>
<g>
</g>
</svg>
