<?xml version="1.0" encoding="iso-8859-1"?>
<!-- Generator: Adobe Illustrator 19.0.0, SVG Export Plug-In . SVG Version: 6.00 Build 0)  -->
<svg version="1.1" id="Capa_1" xmlns="http://www.w3.org/2000/svg" xmlns:xlink="http://www.w3.org/1999/xlink" x="0px" y="0px"
	 viewBox="0 0 512.012 512.012" style="enable-background:new 0 0 512.012 512.012;" xml:space="preserve">
<rect x="102.4" y="68.272" style="fill:#D68F29;" width="34.133" height="162.133"/>
<g>
	<path style="fill:#62666A;" d="M409.6,366.939c-4.71,0-8.533-3.814-8.533-8.533V187.739c0-3.849,2.577-7.219,6.289-8.235
		l93.867-25.6c4.54-1.263,9.242,1.442,10.479,5.99c1.237,4.54-1.442,9.233-5.99,10.479l-87.578,23.885v164.147
		C418.133,363.125,414.31,366.939,409.6,366.939z"/>
	<path style="fill:#62666A;" d="M409.6,230.406c-3.755,0-7.194-2.492-8.226-6.289c-1.237-4.54,1.442-9.233,5.99-10.479l93.867-25.6
		c4.54-1.271,9.242,1.442,10.479,5.99c1.237,4.54-1.442,9.233-5.99,10.479l-93.867,25.6
		C411.093,230.312,410.334,230.406,409.6,230.406z"/>
</g>
<path style="fill:#6C7175;" d="M511.701,159.895c-1.246-4.548-5.939-7.262-10.479-5.99l-93.867,25.6
	c-3.712,1.015-6.289,4.386-6.289,8.235v138.957c-14.72-11.921-37.675-19.49-64-19.49c-45.457,0-81.067,22.494-81.067,51.2
	c0,28.706,35.61,51.2,81.067,51.2s81.067-22.494,81.067-51.2V194.259l87.578-23.885
	C510.259,169.128,512.939,164.443,511.701,159.895z"/>
<path style="fill:#EA9D2D;" d="M168.38,298.792c7.117-10.121,11.17-22.554,10.795-35.959c-0.879-31.369-27.375-57.532-58.761-58.018
	c-33.417-0.521-60.681,26.419-60.681,59.725c0,12.382,3.772,23.868,10.223,33.391c7.842,11.58,6.144,27.358-5.214,35.507
	c-26.18,18.79-42.291,50.688-38.622,86.144c4.463,43.204,39.433,78.49,82.594,83.285c56.653,6.306,104.619-37.879,104.619-93.261
	c0-31.343-15.386-59.051-39.006-76.066C163.354,325.629,160.597,309.86,168.38,298.792z"/>
<circle style="fill:#B47923;" cx="119.467" cy="409.606" r="34.133"/>
<ellipse style="fill:#D68F29;" cx="119.467" cy="405.339" rx="33.707" ry="29.867"/>
<rect x="85.333" y="8.539" style="fill:#EA9D2D;" width="68.267" height="76.8"/>
<g>
	<rect x="153.6" y="8.539" style="fill:#DBDBDB;" width="25.6" height="17.067"/>
	<rect x="153.6" y="51.206" style="fill:#DBDBDB;" width="25.6" height="17.067"/>
	<rect x="59.733" y="8.539" style="fill:#DBDBDB;" width="25.6" height="17.067"/>
	<rect x="59.733" y="51.206" style="fill:#DBDBDB;" width="25.6" height="17.067"/>
</g>
<g>
	<rect y="128.006" style="fill:#B9B9B9;" width="76.8" height="17.067"/>
	<rect x="162.133" y="128.006" style="fill:#B9B9B9;" width="226.133" height="17.067"/>
	<rect x="162.133" y="170.673" style="fill:#B9B9B9;" width="221.867" height="17.067"/>
	<rect y="170.673" style="fill:#B9B9B9;" width="76.8" height="17.067"/>
</g>
<path style="fill:#6CBAE5;" d="M349.867,443.739h-25.6c-4.71,0-8.533,3.814-8.533,8.533v17.502
	c-1.382-0.282-2.807-0.435-4.267-0.435c-11.759,0-21.333,9.566-21.333,21.333s9.574,21.333,21.333,21.333
	c11.759,0,21.333-9.566,21.333-21.333c0-0.973-0.162-1.903-0.29-2.842c0.085-0.486,0.29-0.922,0.29-1.425v-25.6h17.067
	c4.71,0,8.533-3.814,8.533-8.533C358.4,447.554,354.577,443.739,349.867,443.739z M311.467,494.939c-2.355,0-4.267-1.92-4.267-4.267
	s1.911-4.267,4.267-4.267c2.355,0,4.267,1.92,4.267,4.267S313.822,494.939,311.467,494.939z"/>
<path style="fill:#32B39B;" d="M477.867,34.139h-25.6c-4.71,0-8.533,3.814-8.533,8.533v17.502c-1.382-0.282-2.807-0.435-4.267-0.435
	c-11.759,0-21.333,9.566-21.333,21.333s9.574,21.333,21.333,21.333c11.759,0,21.333-9.566,21.333-21.333
	c0-0.973-0.162-1.903-0.29-2.842c0.085-0.486,0.29-0.922,0.29-1.425v-25.6h17.067c4.71,0,8.533-3.814,8.533-8.533
	S482.577,34.139,477.867,34.139z M439.467,85.339c-2.355,0-4.267-1.92-4.267-4.267c0-2.347,1.911-4.267,4.267-4.267
	c2.355,0,4.267,1.92,4.267,4.267C443.733,83.419,441.822,85.339,439.467,85.339z"/>
<path style="fill:#EA6B65;" d="M290.133,25.606h-17.067v-8.533h17.067c4.71,0,8.533-3.814,8.533-8.533s-3.823-8.533-8.533-8.533
	h-25.6c-4.71,0-8.533,3.814-8.533,8.533v26.035c-1.382-0.282-2.807-0.435-4.267-0.435c-11.759,0-21.333,9.566-21.333,21.333
	s9.574,21.333,21.333,21.333c11.759,0,21.333-9.566,21.333-21.333c0-0.973-0.162-1.903-0.29-2.842
	c0.085-0.486,0.29-0.922,0.29-1.425v-8.533h17.067c4.71,0,8.533-3.814,8.533-8.533S294.844,25.606,290.133,25.606z M251.733,59.739
	c-2.355,0-4.267-1.92-4.267-4.267c0-2.347,1.911-4.267,4.267-4.267c2.355,0,4.267,1.92,4.267,4.267
	C256,57.819,254.089,59.739,251.733,59.739z"/>
<g>
	<rect x="204.8" y="213.339" style="fill:#B9B9B9;" width="179.2" height="17.067"/>
	<rect x="204.8" y="256.006" style="fill:#B9B9B9;" width="179.2" height="17.067"/>
	<rect y="213.339" style="fill:#B9B9B9;" width="34.133" height="17.067"/>
	<rect y="256.006" style="fill:#B9B9B9;" width="34.133" height="17.067"/>
</g>
<rect x="102.4" y="85.339" style="fill:#B47923;" width="34.133" height="19.2"/>
<path d="M505.711,170.374c4.548-1.246,7.228-5.931,5.99-10.479c-1.246-4.548-5.939-7.262-10.479-5.99l-93.867,25.6
	c-3.712,1.015-6.289,4.386-6.289,8.235v138.957c-14.72-11.921-37.675-19.49-64-19.49c-45.457,0-81.067,22.494-81.067,51.2
	c0,28.706,35.61,51.2,81.067,51.2s81.067-22.494,81.067-51.2V228.392l87.578-23.885c4.548-1.246,7.228-5.931,5.99-10.479
	c-1.246-4.548-5.939-7.27-10.479-5.99l-83.089,22.665v-16.444L505.711,170.374z M337.067,392.539c-34.688,0-64-15.633-64-34.133
	c0-18.5,29.312-34.133,64-34.133s64,15.633,64,34.133C401.067,376.906,371.755,392.539,337.067,392.539z"/>
<path d="M107.776,511.357c3.823,0.427,7.646,0.632,11.452,0.632c25.207,0,49.673-9.207,68.506-26.061
	c21.692-19.405,34.133-47.232,34.133-76.322c0-32.768-15.906-63.795-42.556-82.995c-7.219-5.197-9.028-15.693-3.951-22.912
	c8.491-12.075,12.766-26.291,12.348-41.114c-0.768-27.383-18.398-51.106-42.641-61.167V93.872h8.533c4.71,0,8.533-3.814,8.533-8.533
	V68.272H179.2V51.206h-17.067v-25.6H179.2V8.539h-17.067c0-4.719-3.823-8.533-8.533-8.533H85.333c-4.71,0-8.533,3.814-8.533,8.533
	H59.733v17.067H76.8v25.6H59.733v17.067H76.8v17.067c0,4.719,3.823,8.533,8.533,8.533h8.533v107.341
	c-8.209,3.328-15.795,8.277-22.289,14.677C58.436,228.819,51.2,246.099,51.2,264.539c0,13.687,4.045,26.889,11.691,38.178
	c5.513,8.132,4.139,18.586-3.123,23.791C29.542,348.2,13.79,383.323,17.63,420.469C22.528,467.871,60.442,506.101,107.776,511.357z
	 M93.867,17.072h51.2v59.733h-8.533H102.4h-8.533V17.072z M128,93.872v102.4h-17.067v-102.4H128z M69.717,340.375
	c14.831-10.633,18.039-31.386,7.305-47.223c-5.726-8.465-8.755-18.355-8.755-28.612c0-13.833,5.427-26.795,15.283-36.489
	c9.651-9.506,22.374-14.711,35.908-14.711c0.273,0,0.555,0,0.828,0.009c27.017,0.427,49.604,22.724,50.355,49.724
	c0.307,11.119-2.884,21.777-9.242,30.814c-10.513,14.95-6.955,35.84,7.936,46.575c22.204,16,35.465,41.847,35.465,69.146
	c0,24.243-10.368,47.437-28.45,63.607c-18.321,16.401-41.975,23.945-66.688,21.171c-39.415-4.378-70.972-36.198-75.051-75.674
	C31.403,387.743,44.535,358.449,69.717,340.375z"/>
<path d="M119.467,452.273c23.526,0,42.667-19.14,42.667-42.667s-19.14-42.667-42.667-42.667S76.8,386.079,76.8,409.606
	S95.94,452.273,119.467,452.273z M119.467,384.006c14.114,0,25.6,11.486,25.6,25.6s-11.486,25.6-25.6,25.6s-25.6-11.486-25.6-25.6
	S105.353,384.006,119.467,384.006z"/>
<rect y="128.006" width="76.8" height="17.067"/>
<rect x="162.133" y="128.006" width="238.933" height="17.067"/>
<rect x="162.133" y="170.673" width="221.867" height="17.067"/>
<rect y="170.673" width="76.8" height="17.067"/>
<path d="M332.8,460.806h17.067c4.71,0,8.533-3.814,8.533-8.533c0-4.719-3.823-8.533-8.533-8.533h-25.6
	c-4.71,0-8.533,3.814-8.533,8.533v17.502c-1.382-0.282-2.807-0.435-4.267-0.435c-11.759,0-21.333,9.566-21.333,21.333
	s9.574,21.333,21.333,21.333c11.759,0,21.333-9.566,21.333-21.333c0-0.973-0.162-1.903-0.29-2.842
	c0.085-0.486,0.29-0.922,0.29-1.425V460.806z M311.467,494.939c-2.355,0-4.267-1.92-4.267-4.267s1.911-4.267,4.267-4.267
	c2.355,0,4.267,1.92,4.267,4.267S313.822,494.939,311.467,494.939z"/>
<path d="M290.133,17.072c4.71,0,8.533-3.814,8.533-8.533s-3.823-8.533-8.533-8.533h-25.6c-4.71,0-8.533,3.814-8.533,8.533v26.035
	c-1.382-0.282-2.807-0.435-4.267-0.435c-11.759,0-21.333,9.566-21.333,21.333s9.574,21.333,21.333,21.333
	c11.759,0,21.333-9.566,21.333-21.333c0-0.973-0.162-1.903-0.29-2.842c0.085-0.486,0.29-0.922,0.29-1.425v-8.533h17.067
	c4.71,0,8.533-3.814,8.533-8.533s-3.823-8.533-8.533-8.533h-17.067v-8.533H290.133z M251.733,59.739
	c-2.355,0-4.267-1.92-4.267-4.267c0-2.347,1.911-4.267,4.267-4.267c2.355,0,4.267,1.92,4.267,4.267
	C256,57.819,254.089,59.739,251.733,59.739z"/>
<path d="M460.8,51.206h17.067c4.71,0,8.533-3.814,8.533-8.533s-3.823-8.533-8.533-8.533h-25.6c-4.71,0-8.533,3.814-8.533,8.533
	v17.502c-1.382-0.282-2.807-0.435-4.267-0.435c-11.759,0-21.333,9.566-21.333,21.333s9.574,21.333,21.333,21.333
	c11.759,0,21.333-9.566,21.333-21.333c0-0.973-0.162-1.903-0.29-2.842c0.085-0.486,0.29-0.922,0.29-1.425V51.206z M439.467,85.339
	c-2.355,0-4.267-1.92-4.267-4.267c0-2.347,1.911-4.267,4.267-4.267c2.355,0,4.267,1.92,4.267,4.267
	C443.733,83.419,441.822,85.339,439.467,85.339z"/>
<rect x="204.8" y="213.339" width="179.2" height="17.067"/>
<rect x="204.8" y="256.006" width="179.2" height="17.067"/>
<rect y="213.339" width="34.133" height="17.067"/>
<rect y="256.006" width="34.133" height="17.067"/>
<g>
</g>
<g>
</g>
<g>
</g>
<g>
</g>
<g>
</g>
<g>
</g>
<g>
</g>
<g>
</g>
<g>
</g>
<g>
</g>
<g>
</g>
<g>
</g>
<g>
</g>
<g>
</g>
<g>
</g>
</svg>
