<?xml version="1.0" encoding="iso-8859-1"?>
<!-- Generator: Adobe Illustrator 19.0.0, SVG Export Plug-In . SVG Version: 6.00 Build 0)  -->
<svg version="1.1" id="Capa_1" xmlns="http://www.w3.org/2000/svg" xmlns:xlink="http://www.w3.org/1999/xlink" x="0px" y="0px"
	 viewBox="0 0 512.012 512.012" style="enable-background:new 0 0 512.012 512.012;" xml:space="preserve">
<rect x="102.4" y="68.27" style="fill:#D68F29;" width="34.13" height="162.13"/>
<g>
	<path style="fill:#62666A;" d="M409.6,366.939c-4.71,0-8.533-3.814-8.533-8.533V187.739c0-3.849,2.577-7.219,6.289-8.235
		l93.867-25.6c4.54-1.263,9.242,1.442,10.479,5.99c1.237,4.54-1.442,9.233-5.99,10.479l-87.578,23.885v164.147
		C418.133,363.125,414.31,366.939,409.6,366.939z"/>
	<path style="fill:#62666A;" d="M409.6,230.406c-3.755,0-7.194-2.492-8.226-6.289c-1.237-4.54,1.442-9.233,5.99-10.479l93.867-25.6
		c4.54-1.271,9.242,1.442,10.479,5.99c1.237,4.54-1.442,9.233-5.99,10.479l-93.867,25.6
		C411.093,230.312,410.334,230.406,409.6,230.406z"/>
</g>
<path style="fill:#6C7175;" d="M511.701,159.895c-1.246-4.548-5.939-7.262-10.479-5.99l-93.867,25.6
	c-3.712,1.015-6.289,4.386-6.289,8.235v138.957c-14.72-11.921-37.675-19.49-64-19.49c-45.457,0-81.067,22.494-81.067,51.2
	c0,28.706,35.61,51.2,81.067,51.2s81.067-22.494,81.067-51.2V194.259l87.578-23.885
	C510.259,169.128,512.939,164.443,511.701,159.895z"/>
<path style="fill:#EA9D2D;" d="M168.38,298.792c7.117-10.121,11.17-22.554,10.795-35.959c-0.879-31.369-27.375-57.532-58.761-58.018
	c-33.417-0.521-60.681,26.419-60.681,59.725c0,12.382,3.772,23.868,10.223,33.391c7.842,11.58,6.144,27.358-5.214,35.507
	c-26.18,18.79-42.291,50.688-38.622,86.144c4.463,43.204,39.433,78.49,82.594,83.285c56.653,6.306,104.619-37.879,104.619-93.261
	c0-31.343-15.386-59.051-39.006-76.066C163.354,325.629,160.597,309.86,168.38,298.792z"/>
<circle style="fill:#B47923;" cx="119.47" cy="409.61" r="34.13"/>
<ellipse style="fill:#D68F29;" cx="119.47" cy="405.34" rx="33.707" ry="29.867"/>
<rect x="85.33" y="8.539" style="fill:#EA9D2D;" width="68.27" height="76.8"/>
<g>
	<rect x="153.6" y="8.539" style="fill:#DBDBDB;" width="25.6" height="17.07"/>
	<rect x="153.6" y="51.21" style="fill:#DBDBDB;" width="25.6" height="17.07"/>
	<rect x="59.733" y="8.539" style="fill:#DBDBDB;" width="25.6" height="17.07"/>
	<rect x="59.733" y="51.21" style="fill:#DBDBDB;" width="25.6" height="17.07"/>
</g>
<g>
	<rect y="128.01" style="fill:#B9B9B9;" width="76.8" height="17.07"/>
	<rect x="162.13" y="128.01" style="fill:#B9B9B9;" width="226.13" height="17.07"/>
	<rect x="162.13" y="170.67" style="fill:#B9B9B9;" width="221.87" height="17.07"/>
	<rect y="170.67" style="fill:#B9B9B9;" width="76.8" height="17.07"/>
</g>
<path style="fill:#6CBAE5;" d="M349.867,443.739h-25.6c-4.71,0-8.533,3.814-8.533,8.533v17.502
	c-1.382-0.282-2.807-0.435-4.267-0.435c-11.759,0-21.333,9.566-21.333,21.333s9.574,21.333,21.333,21.333
	s21.333-9.566,21.333-21.333c0-0.973-0.162-1.903-0.29-2.842c0.085-0.486,0.29-0.922,0.29-1.425v-25.6h17.067
	c4.71,0,8.533-3.814,8.533-8.533C358.4,447.554,354.577,443.739,349.867,443.739z M311.467,494.939c-2.355,0-4.267-1.92-4.267-4.267
	s1.911-4.267,4.267-4.267c2.355,0,4.267,1.92,4.267,4.267S313.822,494.939,311.467,494.939z"/>
<path style="fill:#32B39B;" d="M477.867,34.139h-25.6c-4.71,0-8.533,3.814-8.533,8.533v17.502c-1.382-0.282-2.807-0.435-4.267-0.435
	c-11.759,0-21.333,9.566-21.333,21.333s9.574,21.333,21.333,21.333S460.8,92.839,460.8,81.072c0-0.973-0.162-1.903-0.29-2.842
	c0.085-0.486,0.29-0.922,0.29-1.425v-25.6h17.067c4.71,0,8.533-3.814,8.533-8.533S482.577,34.139,477.867,34.139z M439.467,85.339
	c-2.355,0-4.267-1.92-4.267-4.267s1.911-4.267,4.267-4.267c2.355,0,4.267,1.92,4.267,4.267
	C443.733,83.419,441.822,85.339,439.467,85.339z"/>
<path style="fill:#EA6B65;" d="M290.133,25.606h-17.067v-8.533h17.067c4.71,0,8.533-3.814,8.533-8.533s-3.823-8.533-8.533-8.533
	h-25.6c-4.71,0-8.533,3.814-8.533,8.533v26.035c-1.382-0.282-2.807-0.435-4.267-0.435c-11.759,0-21.333,9.566-21.333,21.333
	s9.574,21.333,21.333,21.333s21.333-9.566,21.333-21.333c0-0.973-0.162-1.903-0.29-2.842c0.085-0.486,0.29-0.922,0.29-1.425v-8.533
	h17.067c4.71,0,8.533-3.814,8.533-8.533S294.844,25.606,290.133,25.606z M251.733,59.739c-2.355,0-4.267-1.92-4.267-4.267
	s1.911-4.267,4.267-4.267c2.355,0,4.267,1.92,4.267,4.267S254.089,59.739,251.733,59.739z"/>
<g>
	<rect x="204.8" y="213.34" style="fill:#B9B9B9;" width="179.2" height="17.07"/>
	<rect x="204.8" y="256.01" style="fill:#B9B9B9;" width="179.2" height="17.07"/>
	<rect y="213.34" style="fill:#B9B9B9;" width="34.13" height="17.07"/>
	<rect y="256.01" style="fill:#B9B9B9;" width="34.13" height="17.07"/>
</g>
<rect x="102.4" y="85.34" style="fill:#B47923;" width="34.13" height="19.2"/>
<g>
</g>
<g>
</g>
<g>
</g>
<g>
</g>
<g>
</g>
<g>
</g>
<g>
</g>
<g>
</g>
<g>
</g>
<g>
</g>
<g>
</g>
<g>
</g>
<g>
</g>
<g>
</g>
<g>
</g>
</svg>
