<?xml version="1.0" encoding="iso-8859-1"?>
<!-- Generator: Adobe Illustrator 19.0.0, SVG Export Plug-In . SVG Version: 6.00 Build 0)  -->
<svg version="1.1" id="Capa_1" xmlns="http://www.w3.org/2000/svg" xmlns:xlink="http://www.w3.org/1999/xlink" x="0px" y="0px"
	 viewBox="0 0 480 480" style="enable-background:new 0 0 480 480;" xml:space="preserve">
<path style="fill:#D45B5B;" d="M240,24v24V24C120.704,24,24,120.704,24,240h24H24c0,119.296,96.704,216,216,216v-24v24
	c119.296,0,216-96.704,216-216h-24h24C456,120.704,359.296,24,240,24z M416,224c0,26.512-31.032,48-48,48h29.576
	c6.792,0,13.44,2.008,19.096,5.784c9.576,6.384,15.328,17.128,15.328,28.64v32.496c-5.264,10.192-11.28,19.92-18.032,29.08H304v-48
	H176v48H66.032C59.28,358.832,53.264,349.104,48,338.92v-32.496c0-11.512,5.752-22.256,15.328-28.64
	C68.984,274.008,75.624,272,82.424,272H112c-16.968,0-48-21.488-48-48s8-56,48-56s48,29.488,48,56s-31.032,48-48,48h29.576
	c6.792,0,13.44,2.008,19.096,5.784c9.576,6.384,15.328,17.128,15.328,28.64v-48c0-11.512,5.752-22.256,15.328-28.64
	c5.656-3.776,12.296-5.784,19.096-5.784H240c-16.968,0-48-21.488-48-48s8-56,48-56s48,29.488,48,56s-31.032,48-48,48h29.576
	c6.792,0,13.44,2.008,19.096,5.784c9.576,6.384,15.328,17.128,15.328,28.64v48c0-11.512,5.752-22.256,15.328-28.64
	c5.656-3.776,12.296-5.784,19.096-5.784H368c-16.968,0-48-21.488-48-48s8-56,48-56S416,197.488,416,224z"/>
<g>
	<path style="fill:#B3D5E4;" d="M160.672,277.784c-5.656-3.776-12.296-5.784-19.096-5.784H112l16,40l-16,16l-16-16l16-40H82.424
		c-6.792,0-13.44,2.008-19.096,5.784C53.752,284.168,48,294.912,48,306.424v32.496c5.264,10.192,11.28,19.92,18.032,29.08H176v-48
		v-13.576C176,294.912,170.248,284.168,160.672,277.784z"/>
	<path style="fill:#B3D5E4;" d="M120,200l40,24c0-26.512-8-56-48-56s-48,29.488-48,56C64,224,112,224,120,200z"/>
</g>
<path style="fill:#FFFFFF;" d="M160,224l-40-24c-8,24-56,24-56,24c0,26.512,31.032,48,48,48S160,250.512,160,224z"/>
<polygon style="fill:#D45B5B;" points="112,328 128,312 112,272 96,312 "/>
<path style="fill:#B3D5E4;" d="M304,258.424c0-11.512-5.752-22.256-15.328-28.64c-5.656-3.776-12.296-5.784-19.096-5.784H240l16,40
	l-16,16l-16-16l16-40h-29.576c-6.792,0-13.44,2.008-19.096,5.784c-9.576,6.384-15.328,17.128-15.328,28.64v48V320h128v-13.576
	V258.424z"/>
<path style="fill:#FFFFFF;" d="M288,176l-40-24c-8,24-56,24-56,24c0,26.512,31.032,48,48,48S288,202.512,288,176z"/>
<path style="fill:#B3D5E4;" d="M248,152l40,24c0-26.512-8-56-48-56s-48,29.488-48,56C192,176,240,176,248,152z"/>
<polygon style="fill:#D45B5B;" points="240,280 256,264 240,224 224,264 "/>
<g>
	<path style="fill:#B3D5E4;" d="M319.328,277.784c-9.576,6.384-15.328,17.128-15.328,28.64V320v48h109.968
		c6.752-9.168,12.776-18.896,18.032-29.08v-32.496c0-11.512-5.752-22.256-15.328-28.64c-5.656-3.776-12.296-5.784-19.096-5.784H368
		l16,40l-16,16l-16-16l16-40h-29.576C331.624,272,324.984,274.008,319.328,277.784z"/>
	<path style="fill:#B3D5E4;" d="M320,224c0,0,48,0,56-24l40,24c0-26.512-8-56-48-56S320,197.488,320,224z"/>
</g>
<path style="fill:#FFFFFF;" d="M320,224c0,26.512,31.032,48,48,48s48-21.488,48-48l-40-24C368,224,320,224,320,224z"/>
<polygon style="fill:#D45B5B;" points="368,328 384,312 368,272 352,312 "/>
<g>
	<path style="fill:#23374E;" d="M16,16h80V0H8C3.576,0,0,3.584,0,8v88h16V16z"/>
	<path style="fill:#23374E;" d="M480,96V8c0-4.416-3.576-8-8-8h-88v16h80v80H480z"/>
	<path style="fill:#23374E;" d="M8,480h88v-16H16v-80H0v88C0,476.416,3.576,480,8,480z"/>
	<path style="fill:#23374E;" d="M384,464v16h88c4.424,0,8-3.584,8-8v-88h-16v80H384z"/>
	<path style="fill:#23374E;" d="M40.672,341.992c0.08,0.192,0.12,0.4,0.224,0.592c0.272,0.52,0.592,1.008,0.864,1.52
		c2.28,4.32,4.664,8.576,7.216,12.72c0.824,1.352,1.704,2.648,2.552,3.976c1.88,2.928,3.824,5.8,5.84,8.632
		c0.768,1.08,1.448,2.24,2.232,3.304c0.08,0.104,0.208,0.144,0.288,0.248C99.24,426.152,161.528,461.304,232,463.8V480h16v-16.2
		c70.472-2.488,132.76-37.648,172.112-90.8c0.08-0.104,0.216-0.144,0.288-0.248c0.784-1.064,1.472-2.224,2.232-3.304
		c2.008-2.832,3.96-5.704,5.84-8.632c0.856-1.328,1.728-2.632,2.552-3.976c2.544-4.152,4.936-8.4,7.216-12.72
		c0.272-0.52,0.592-1,0.864-1.52c0.096-0.184,0.136-0.4,0.224-0.592c14.584-28.376,23.272-60.24,24.464-93.992H480v-16h-16.2
		C459.656,114.84,365.16,20.344,248,16.2V0h-16v16.2C114.84,20.344,20.344,114.84,16.2,232H0v16h16.2
		C17.392,281.752,26.088,313.616,40.672,341.992z M123.032,211.152l28.592,17.16C148.416,247.896,124.28,264,112,264
		c-11.592,0-33.728-14.336-38.888-32.416C86.808,230.456,111.536,226.304,123.032,211.152z M72.44,215.536
		C74.584,188.728,87.232,176,112,176c22.704,0,35.176,10.736,38.776,33.136l-26.656-15.992c-2.088-1.24-4.616-1.488-6.888-0.648
		c-2.28,0.84-4.048,2.672-4.816,4.976C108.368,209.616,86.512,214.2,72.44,215.536z M112,293.536l6.608,16.536L112,316.688
		l-6.608-6.616L112,293.536z M100.184,280l-11.608,29.024c-1.184,2.976-0.496,6.368,1.776,8.632l16,16
		c1.552,1.56,3.6,2.344,5.648,2.344c2.048,0,4.096-0.784,5.656-2.344l16-16c2.264-2.264,2.96-5.656,1.776-8.632L123.816,280h17.76
		c5.232,0,10.296,1.536,14.656,4.44C163.6,289.344,168,297.568,168,306.424V320v40H70.264c-0.624-0.88-1.264-1.744-1.872-2.632
		c-1.088-1.592-2.136-3.208-3.184-4.84c-1-1.552-2.032-3.088-2.992-4.664c-1.96-3.224-3.824-6.512-5.608-9.848
		c-0.216-0.384-0.4-0.784-0.608-1.176v-30.416c0-8.856,4.4-17.072,11.768-21.984c4.36-2.904,9.416-4.44,14.656-4.44H100.184z
		 M251.032,163.152l28.592,17.16C276.416,199.896,252.28,216,240,216c-11.592,0-33.728-14.336-38.888-32.416
		C214.808,182.456,239.536,178.304,251.032,163.152z M200.44,167.536C202.584,140.728,215.232,128,240,128
		c22.704,0,35.176,10.736,38.776,33.136l-26.656-15.992c-2.088-1.248-4.624-1.48-6.888-0.648c-2.28,0.84-4.048,2.672-4.816,4.976
		C236.368,161.616,214.512,166.2,200.44,167.536z M240,245.536l6.608,16.536L240,268.688l-6.608-6.616L240,245.536z M228.184,232
		l-11.608,29.024c-1.184,2.976-0.496,6.368,1.776,8.632l16,16c1.552,1.56,3.6,2.344,5.648,2.344s4.096-0.784,5.656-2.344l16-16
		c2.264-2.264,2.96-5.656,1.776-8.632L251.816,232h17.76c5.232,0,10.296,1.536,14.656,4.44C291.6,241.344,296,249.568,296,258.424
		v48V312H184v-5.576v-48c0-8.856,4.4-17.072,11.768-21.984c4.36-2.904,9.416-4.44,14.656-4.44H228.184z M379.032,211.152
		l28.592,17.16C404.416,247.896,380.28,264,368,264c-11.592,0-33.728-14.336-38.888-32.416
		C342.808,230.456,367.536,226.304,379.032,211.152z M328.44,215.536C330.584,188.728,343.232,176,368,176
		c22.704,0,35.176,10.736,38.776,33.136l-26.656-15.992c-2.08-1.24-4.616-1.488-6.888-0.648c-2.28,0.84-4.048,2.672-4.816,4.976
		C364.368,209.616,342.512,214.2,328.44,215.536z M368,293.536l6.608,16.536L368,316.688l-6.608-6.616L368,293.536z M356.184,280
		l-11.608,29.024c-1.184,2.976-0.496,6.368,1.776,8.632l16,16c1.552,1.56,3.6,2.344,5.648,2.344s4.096-0.784,5.656-2.344l16-16
		c2.264-2.264,2.96-5.656,1.776-8.632L379.816,280h17.76c5.232,0,10.296,1.536,14.656,4.44C419.6,289.344,424,297.568,424,306.424
		v30.416c-0.208,0.392-0.392,0.792-0.608,1.176c-1.784,3.336-3.656,6.624-5.608,9.848c-0.96,1.576-1.992,3.112-2.992,4.664
		c-1.048,1.624-2.096,3.248-3.184,4.84c-0.608,0.888-1.248,1.752-1.872,2.632H312v-40v-13.576c0-8.856,4.4-17.072,11.768-21.984
		c4.36-2.904,9.416-4.44,14.656-4.44H356.184z M248,447.8V432h-16v15.8c-59.504-2.264-112.648-29.632-149.176-71.8H176
		c4.424,0,8-3.584,8-8v-40h112v40c0,4.416,3.576,8,8,8h93.176C360.648,418.168,307.496,445.536,248,447.8z M232,32.2V48h16V32.2
		c108.336,4.128,195.672,91.464,199.8,199.8H432v16h15.8c-0.68,17.768-3.584,34.96-8.464,51.328
		c-1.936-11.424-8.4-21.656-18.224-28.2c-5.496-3.664-11.72-5.92-18.208-6.736C414.776,254.112,424,239.704,424,224
		c0-52.896-30.456-64-56-64s-56,11.104-56,64c0,15.704,9.224,30.112,21.096,40.392c-6.488,0.816-12.704,3.072-18.208,6.736
		c-1.016,0.68-1.944,1.44-2.888,2.2v-14.896c0-14.216-7.064-27.416-18.888-35.296c-5.496-3.664-11.72-5.92-18.208-6.736
		C286.776,206.112,296,191.704,296,176c0-52.896-30.456-64-56-64s-56,11.104-56,64c0,15.704,9.224,30.112,21.096,40.392
		c-6.488,0.816-12.704,3.072-18.208,6.736C175.064,231.008,168,244.2,168,258.424v14.896c-0.944-0.752-1.872-1.52-2.888-2.2
		c-5.496-3.664-11.72-5.92-18.208-6.736C158.776,254.112,168,239.704,168,224c0-52.896-30.456-64-56-64s-56,11.104-56,64
		c0,15.704,9.224,30.112,21.096,40.392c-6.488,0.816-12.704,3.072-18.208,6.736c-9.824,6.552-16.288,16.784-18.224,28.2
		C35.784,282.96,32.88,265.768,32.2,248H48v-16H32.2C36.328,123.664,123.664,36.328,232,32.2z"/>
</g>
<g>
</g>
<g>
</g>
<g>
</g>
<g>
</g>
<g>
</g>
<g>
</g>
<g>
</g>
<g>
</g>
<g>
</g>
<g>
</g>
<g>
</g>
<g>
</g>
<g>
</g>
<g>
</g>
<g>
</g>
</svg>
