<?xml version="1.0" encoding="iso-8859-1"?>
<!-- Generator: Adobe Illustrator 19.0.0, SVG Export Plug-In . SVG Version: 6.00 Build 0)  -->
<svg version="1.1" id="Layer_1" xmlns="http://www.w3.org/2000/svg" xmlns:xlink="http://www.w3.org/1999/xlink" x="0px" y="0px"
	 viewBox="0 0 512 512" style="enable-background:new 0 0 512 512;" xml:space="preserve">
<path style="fill:#D4DEED;" d="M494.345,459.034H17.655C7.904,459.034,0,451.13,0,441.379V70.621
	c0-9.751,7.904-17.655,17.655-17.655h476.69c9.751,0,17.655,7.904,17.655,17.655v370.759
	C512,451.13,504.096,459.034,494.345,459.034z"/>
<path style="fill:#ACB5CB;" d="M441.379,406.069h35.31c4.875,0,8.828-3.953,8.828-8.828V264.828c0-4.875-3.953-8.828-8.828-8.828
	h-35.31c-4.875,0-8.828,3.953-8.828,8.828v132.414C432.552,402.116,436.504,406.069,441.379,406.069z"/>
<g>
	<path style="fill:#5A5D6F;" d="M476.69,406.069L476.69,406.069c4.875,0,8.828-3.953,8.828-8.828V264.828
		c0-4.875-3.953-8.828-8.828-8.828l0,0c-4.875,0-8.828,3.953-8.828,8.828v132.414C467.862,402.116,471.815,406.069,476.69,406.069z"
		/>
	<circle style="fill:#5A5D6F;" cx="414.897" cy="150.069" r="70.621"/>
</g>
<circle style="fill:#929CB4;" cx="203.034" cy="256" r="185.379"/>
<circle style="fill:#444455;" cx="203.034" cy="256" r="167.724"/>
<circle style="fill:#FF6464;" cx="203.034" cy="256" r="70.621"/>
<circle style="fill:#D4DEED;" cx="203.034" cy="256" r="8.828"/>
<circle style="fill:#C4CFE3;" cx="414.897" cy="150.069" r="39.724"/>
<path style="fill:#929CB4;" d="M467.862,141.241h-44.138V79.448c0-4.875-3.948-8.828-8.828-8.828c-4.879,0-8.828,3.953-8.828,8.828
	v91.62c0,16.142,2.112,32.211,6.268,47.763l18.621,69.866c6.13,22.987,1.716,47.276-12.113,66.646l-26.268,36.771
	c-2.836,3.966-1.913,9.479,2.051,12.31c1.551,1.112,3.345,1.646,5.121,1.646c2.759,0,5.465-1.284,7.19-3.699l26.268-36.771
	c16.905-23.672,22.302-53.362,14.802-81.452l-18.621-69.87c-3.758-14.069-5.664-28.608-5.664-43.211v-12.171h44.138
	c4.879,0,8.828-3.953,8.828-8.828C476.69,145.194,472.742,141.241,467.862,141.241z"/>
<circle style="fill:#D4DEED;" cx="414.897" cy="150.069" r="8.828"/>
<circle style="fill:#444455;" cx="467.862" cy="150.069" r="13.241"/>
<path style="fill:#C4CFE3;" d="M423.724,97.103h-17.655c-4.875,0-8.828-3.953-8.828-8.828v-8.828c0-4.875,3.953-8.828,8.828-8.828
	h17.655c4.875,0,8.828,3.953,8.828,8.828v8.828C432.552,93.151,428.599,97.103,423.724,97.103z"/>
<path style="fill:#5A5D6F;" d="M388.542,429.223l-15.395-10.998c-1.7-1.215-2.093-3.577-0.879-5.278l20.825-29.153
	c1.215-1.7,3.577-2.094,5.278-0.879l15.395,10.998c1.7,1.215,2.093,3.577,0.879,5.278l-20.825,29.153
	C392.606,430.044,390.242,430.438,388.542,429.223z"/>
<path style="fill:#929CB4;" d="M485.517,379.586h-17.655c-4.875,0-8.828-3.953-8.828-8.828v-8.828c0-4.875,3.953-8.828,8.828-8.828
	h17.655c4.875,0,8.828,3.953,8.828,8.828v8.828C494.345,375.634,490.392,379.586,485.517,379.586z"/>
<circle style="fill:#5A5D6F;" cx="44.138" cy="414.897" r="17.655"/>
<circle style="fill:#C4CFE3;" cx="44.138" cy="97.103" r="17.655"/>
<g>
</g>
<g>
</g>
<g>
</g>
<g>
</g>
<g>
</g>
<g>
</g>
<g>
</g>
<g>
</g>
<g>
</g>
<g>
</g>
<g>
</g>
<g>
</g>
<g>
</g>
<g>
</g>
<g>
</g>
</svg>
