<?xml version="1.0" encoding="iso-8859-1"?>
<!-- Generator: Adobe Illustrator 19.0.0, SVG Export Plug-In . SVG Version: 6.00 Build 0)  -->
<svg version="1.1" id="Capa_1" xmlns="http://www.w3.org/2000/svg" xmlns:xlink="http://www.w3.org/1999/xlink" x="0px" y="0px"
	 viewBox="0 0 512 512" style="enable-background:new 0 0 512 512;" xml:space="preserve">
<circle style="fill:#78B22A;" cx="256" cy="256" r="256"/>
<path style="fill:#679C20;" d="M511.025,278.276L320.031,87.282L250,372.186l-56.366,66.967l72.624,72.624
	C395.45,506.684,500.024,405.865,511.025,278.276z"/>
<polygon style="fill:#E8C917;" points="324.754,204.976 278.516,402.858 233.484,402.858 187.246,204.976 "/>
<polygon style="fill:#DEBB0D;" points="324.754,204.976 255.571,204.976 255.571,402.858 278.516,402.858 "/>
<polygon style="fill:#F2D813;" points="292.806,204.977 268.054,402.858 243.946,402.858 219.194,204.977 "/>
<polygon style="fill:#E8C917;" points="292.806,204.977 255.571,204.977 255.571,402.858 268.054,402.858 "/>
<circle style="fill:#FFE733;" cx="256" cy="148.79" r="88.79"/>
<path style="fill:#F2D813;" d="M256,60c-0.143,0-0.285,0.005-0.429,0.005v177.573c0.143,0.001,0.285,0.005,0.429,0.005
	c49.038,0,88.792-39.753,88.792-88.792C344.792,99.753,305.038,60,256,60z"/>
<polygon style="fill:#D6AA1A;" points="256,112.214 221.713,137.125 234.81,177.432 277.19,177.432 290.287,137.125 "/>
<polygon style="fill:#CC9D02;" points="290.287,137.125 256,112.214 255.571,112.526 255.571,177.432 277.19,177.432 "/>
<path style="fill:#D6AA1A;" d="M223.763,66.037L256,89.459l32.237-23.422C278.244,62.141,267.372,60,256,60
	C244.628,60,233.756,62.141,223.763,66.037z"/>
<g>
	<path style="fill:#CC9D02;" d="M288.237,66.037C278.244,62.141,267.372,60,256,60c-0.144,0-0.285,0.009-0.429,0.01v29.137
		L256,89.459L288.237,66.037z"/>
	<path style="fill:#CC9D02;" d="M312.12,129.765l32.553,23.651c0.079-1.532,0.119-3.074,0.119-4.625
		c0-21.546-7.676-41.297-20.44-56.674L312.12,129.765z"/>
	<path style="fill:#CC9D02;" d="M278.516,234.7c21.905-5.726,40.513-19.605,52.383-38.204h-39.97L278.516,234.7z"/>
</g>
<g>
	<path style="fill:#D6AA1A;" d="M187.648,92.118c-12.764,15.377-20.44,35.128-20.44,56.674c0,1.551,0.04,3.093,0.119,4.625
		l32.553-23.651L187.648,92.118z"/>
	<path style="fill:#D6AA1A;" d="M221.071,196.497h-39.97c11.87,18.598,30.478,32.478,52.383,38.204L221.071,196.497z"/>
	<rect x="193.63" y="372.19" style="fill:#D6AA1A;" width="124.73" height="66.967"/>
</g>
<rect x="255.57" y="372.19" style="fill:#CC9D02;" width="62.795" height="66.967"/>
<g>
</g>
<g>
</g>
<g>
</g>
<g>
</g>
<g>
</g>
<g>
</g>
<g>
</g>
<g>
</g>
<g>
</g>
<g>
</g>
<g>
</g>
<g>
</g>
<g>
</g>
<g>
</g>
<g>
</g>
</svg>
